<?xml version="1.0" standalone="no"?>
<!DOCTYPE svg PUBLIC "-//W3C//DTD SVG 20010904//EN"
 "http://www.w3.org/TR/2001/REC-SVG-20010904/DTD/svg10.dtd">
<svg version="1.0" xmlns="http://www.w3.org/2000/svg"
 width="200.000000pt" height="200.000000pt" viewBox="0 0 200.000000 200.000000"
 preserveAspectRatio="xMidYMid meet">
<metadata>
Created by potrace 1.11, written by Peter Selinger 2001-2013
</metadata>
<g transform="translate(0.000000,200.000000) scale(0.100000,-0.100000)"
fill="#000000" stroke="none">
<path d="M62 1437 c-21 -23 -22 -30 -22 -289 l0 -267 26 -20 c21 -17 41 -21
99 -21 97 0 113 16 117 120 l3 75 101 -97 100 -98 75 0 c119 0 119 0 119 186
0 85 3 154 7 154 4 0 47 -39 95 -87 l88 -88 0 -56 c0 -45 4 -60 23 -77 20 -19
35 -22 109 -22 80 0 87 2 102 25 9 14 16 45 16 74 l0 49 97 90 98 91 5 -112 5
-112 61 -57 61 -58 192 0 193 0 64 62 c64 61 64 61 64 118 0 82 -12 90 -138
90 -84 0 -102 -3 -102 -15 0 -12 -16 -15 -80 -15 l-80 0 0 75 0 75 80 0 c73 0
80 -2 80 -20 0 -19 7 -20 95 -20 129 0 145 10 145 93 0 61 0 62 -57 119 l-57
58 -199 0 -199 0 -61 -55 -62 -55 -3 33 c-2 17 -13 42 -24 55 -19 19 -32 22
-98 22 -71 0 -78 -2 -103 -28 -19 -20 -27 -39 -27 -64 0 -30 -7 -42 -38 -67
l-39 -30 -36 37 c-28 29 -37 46 -37 72 -1 19 -9 45 -19 58 -17 20 -28 22 -104
22 -64 0 -88 -4 -97 -15 -12 -14 -15 -14 -36 0 -16 10 -48 15 -102 15 -103 0
-120 -15 -124 -112 l-3 -67 -95 89 -95 89 -81 1 c-72 0 -83 -3 -102 -23z"/>
<path d="M1943 1445 c0 -8 4 -12 9 -9 5 3 6 10 3 15 -9 13 -12 11 -12 -6z"/>
<path d="M1825 813 c-66 -14 -105 -65 -105 -139 0 -61 28 -110 75 -130 44 -18
63 -18 100 2 19 10 31 11 33 5 2 -6 12 -11 23 -11 17 0 19 8 19 75 l0 76 -57
-3 c-51 -3 -58 -6 -61 -25 -3 -20 1 -23 27 -23 32 0 41 -16 19 -38 -13 -13
-67 -16 -84 -4 -18 12 -34 49 -34 80 0 67 79 110 113 61 11 -15 23 -20 46 -17
29 3 30 4 18 27 -22 44 -84 74 -132 64z"/>
<path d="M50 675 l0 -135 30 0 c29 0 30 2 30 45 0 44 0 45 34 45 82 0 132 47
119 113 -10 49 -45 67 -134 67 l-79 0 0 -135z m134 79 c9 -4 16 -18 16 -34 0
-29 -18 -40 -67 -40 -20 0 -23 5 -23 40 0 38 2 40 29 40 16 0 36 -3 45 -6z"/>
<path d="M300 675 l0 -135 95 0 c95 0 95 0 95 25 0 24 -2 25 -65 25 l-65 0 0
110 0 110 -30 0 -30 0 0 -135z"/>
<path d="M547 682 c-26 -70 -47 -130 -47 -134 0 -5 13 -8 29 -8 23 0 31 6 40
30 9 28 13 30 60 30 47 0 50 -2 56 -30 6 -26 11 -30 41 -30 19 0 34 1 34 3 0
1 -22 61 -50 132 -27 71 -50 131 -50 132 0 2 -15 3 -32 3 -33 0 -33 0 -81
-128z m86 -30 c-33 -5 -34 -2 -21 42 l12 39 17 -39 c16 -39 16 -39 -8 -42z"/>
<path d="M780 675 l0 -135 30 0 29 0 3 83 3 82 50 -82 c46 -76 53 -83 83 -83
l32 0 0 135 0 135 -30 0 -30 0 0 -87 0 -88 -53 87 c-48 81 -54 87 -84 88 l-33
0 0 -135z"/>
<path d="M1060 676 l0 -136 30 0 29 0 3 82 3 82 50 -82 c46 -75 53 -81 83 -82
l32 0 0 135 0 135 -30 0 -30 0 0 -87 0 -87 -53 84 c-47 75 -57 85 -85 88 l-32
3 0 -135z"/>
<path d="M1340 675 l0 -135 30 0 30 0 0 135 0 135 -30 0 -30 0 0 -135z"/>
<path d="M1450 676 l0 -136 30 0 29 0 3 83 3 82 50 -82 c46 -76 53 -83 83 -83
l32 0 0 135 0 135 -30 0 -30 0 0 -87 0 -86 -53 84 c-46 74 -56 84 -85 87 l-32
3 0 -135z"/>
</g>
</svg>
